<?xml version="1.0" encoding="utf-8"?>
<!-- Generator: Adobe Illustrator 16.0.3, SVG Export Plug-In . SVG Version: 6.00 Build 0)  -->
<!DOCTYPE svg PUBLIC "-//W3C//DTD SVG 1.1//EN" "http://www.w3.org/Graphics/SVG/1.1/DTD/svg11.dtd">
<svg version="1.1" xmlns="http://www.w3.org/2000/svg" xmlns:xlink="http://www.w3.org/1999/xlink" x="0px" y="0px" width="416px"
	 height="164px" viewBox="0 0 416 164" enable-background="new 0 0 416 164" xml:space="preserve">
<g id="BACKGROUND" display="none">
	<rect x="-191.786" y="-205.285" display="inline" fill="#606168" width="803.572" height="800.57"/>
</g>
<g id="DESIGNED_BY_FREEPIK" display="none">
</g>
<g id="OBJECTS">
	<g>
		<linearGradient id="SVGID_1_" gradientUnits="userSpaceOnUse" x1="207.1816" y1="70.5503" x2="396.2285" y2="70.5503">
			<stop  offset="1" style="stop-color:#1D1D1B"/>
			<stop  offset="1" style="stop-color:#FFFFFF"/>
		</linearGradient>
		<polyline fill="none" stroke="url(#SVGID_1_)" stroke-width="4" stroke-miterlimit="10" points="394.814,133.656 362.213,101.057 
			362.213,19.561 329.615,19.561 329.615,72.218 267.55,8.904 208.625,70.336 		"/>
		<linearGradient id="SVGID_2_" gradientUnits="userSpaceOnUse" x1="23.7715" y1="70.3726" x2="212.8145" y2="70.3726">
			<stop  offset="1" style="stop-color:#1D1D1B"/>
			<stop  offset="1" style="stop-color:#FFFFFF"/>
		</linearGradient>
		<polyline fill="none" stroke="url(#SVGID_2_)" stroke-width="4" stroke-miterlimit="10" points="25.186,133.477 57.783,100.878 
			57.783,19.384 90.381,19.384 90.381,72.044 152.442,8.727 211.371,70.161 		"/>
	</g>
	<g>
		<g>
			<g>
				<g>
					<path stroke="#000000" stroke-miterlimit="10" d="M81.521,73.787h21.75v51.247c0,11.019-2.267,19.139-6.8,24.361
						c-4.534,5.222-11.583,7.833-21.147,7.833c-2.487,0-4.936-0.182-7.346-0.545c-2.41-0.364-4.744-0.89-7.001-1.578v-17.848
						c1.148,0.459,2.305,0.804,3.472,1.033c1.167,0.229,2.324,0.344,3.472,0.344c4.897,0,8.388-1.425,10.474-4.275
						c2.084-2.85,3.127-7.776,3.127-14.777V73.787z"/>
					<path stroke="#000000" stroke-miterlimit="10" d="M140.171,73.787h26.226l30.875,81.548H174.03l-5.796-17.273h-31.391
						l-6.083,17.273h-21.521L140.171,73.787z M152.854,91.979l-10.559,30.588h20.774L152.854,91.979z"/>
					<path stroke="#000000" stroke-miterlimit="10" d="M199.796,73.787h21.75v47.459c0,6.964,1.032,11.994,3.099,15.093
						c2.065,3.099,5.375,4.648,9.928,4.648c4.667,0,8.187-1.665,10.56-4.993c2.372-3.328,3.558-8.244,3.558-14.749V73.787h20.718
						v47.459c0,12.014-2.898,21.014-8.694,27.001c-5.797,5.988-14.511,8.981-26.141,8.981c-11.516,0-20.191-3.013-26.025-9.038
						c-5.835-6.026-8.752-15.007-8.752-26.944V73.787z"/>
					<path stroke="#000000" stroke-miterlimit="10" d="M339.076,74.705l-1.607,16.814c-3.328-1.415-6.523-2.477-9.583-3.185
						c-3.062-0.708-6.026-1.062-8.896-1.062c-4.399,0-7.833,0.698-10.301,2.095c-2.468,1.397-3.702,3.319-3.702,5.767
						c0,1.722,0.632,3.224,1.895,4.505c1.263,1.282,3.156,2.344,5.681,3.185c0.842,0.268,2.047,0.651,3.616,1.148
						c9.334,3.022,15.532,5.681,18.593,7.977c2.87,2.219,4.974,4.754,6.313,7.604c1.338,2.851,2.008,6.189,2.008,10.014
						c0,8.991-2.983,15.849-8.952,20.574c-5.968,4.726-14.615,7.087-25.939,7.087c-4.094,0-8.197-0.287-12.31-0.86
						c-4.113-0.574-8.197-1.435-12.252-2.583l1.836-18.191c3.825,1.722,7.547,3.032,11.162,3.931s7.03,1.349,10.244,1.349
						c4.284,0,7.67-0.804,10.157-2.411c2.486-1.607,3.73-3.788,3.73-6.542c0-3.405-3.979-6.485-11.937-9.239
						c-1.914-0.65-3.386-1.167-4.419-1.55c-7.768-2.792-13.314-6.035-16.643-9.727c-3.328-3.691-4.993-8.407-4.993-14.146
						c0-8.187,2.927-14.48,8.781-18.88c5.854-4.399,14.25-6.6,25.192-6.6c4.018,0,7.881,0.239,11.593,0.717
						C332.055,72.974,335.633,73.71,339.076,74.705z"/>
				</g>
			</g>
		</g>
		<g>
			<g>
				<g>
					<path fill="#1D1D1B" d="M81.521,73.787h21.75v51.247c0,11.019-2.267,19.139-6.8,24.361c-4.534,5.222-11.583,7.833-21.147,7.833
						c-2.487,0-4.936-0.182-7.346-0.545c-2.41-0.364-4.744-0.89-7.001-1.578v-17.848c1.148,0.459,2.305,0.804,3.472,1.033
						c1.167,0.229,2.324,0.344,3.472,0.344c4.897,0,8.388-1.425,10.474-4.275c2.084-2.85,3.127-7.776,3.127-14.777V73.787z"/>
					<path fill="#1D1D1B" d="M140.171,73.787h26.226l30.875,81.548H174.03l-5.796-17.273h-31.391l-6.083,17.273h-21.521
						L140.171,73.787z M152.854,91.979l-10.559,30.588h20.774L152.854,91.979z"/>
					<path fill="#1D1D1B" d="M199.796,73.787h21.75v47.459c0,6.964,1.032,11.994,3.099,15.093c2.065,3.099,5.375,4.648,9.928,4.648
						c4.667,0,8.187-1.665,10.56-4.993c2.372-3.328,3.558-8.244,3.558-14.749V73.787h20.718v47.459
						c0,12.014-2.898,21.014-8.694,27.001c-5.797,5.988-14.511,8.981-26.141,8.981c-11.516,0-20.191-3.013-26.025-9.038
						c-5.835-6.026-8.752-15.007-8.752-26.944V73.787z"/>
					<path fill="#1D1D1B" d="M339.076,74.705l-1.607,16.814c-3.328-1.415-6.523-2.477-9.583-3.185
						c-3.062-0.708-6.026-1.062-8.896-1.062c-4.399,0-7.833,0.698-10.301,2.095c-2.468,1.397-3.702,3.319-3.702,5.767
						c0,1.722,0.632,3.224,1.895,4.505c1.263,1.282,3.156,2.344,5.681,3.185c0.842,0.268,2.047,0.651,3.616,1.148
						c9.334,3.022,15.532,5.681,18.593,7.977c2.87,2.219,4.974,4.754,6.313,7.604c1.338,2.851,2.008,6.189,2.008,10.014
						c0,8.991-2.983,15.849-8.952,20.574c-5.968,4.726-14.615,7.087-25.939,7.087c-4.094,0-8.197-0.287-12.31-0.86
						c-4.113-0.574-8.197-1.435-12.252-2.583l1.836-18.191c3.825,1.722,7.547,3.032,11.162,3.931s7.03,1.349,10.244,1.349
						c4.284,0,7.67-0.804,10.157-2.411c2.486-1.607,3.73-3.788,3.73-6.542c0-3.405-3.979-6.485-11.937-9.239
						c-1.914-0.65-3.386-1.167-4.419-1.55c-7.768-2.792-13.314-6.035-16.643-9.727c-3.328-3.691-4.993-8.407-4.993-14.146
						c0-8.187,2.927-14.48,8.781-18.88c5.854-4.399,14.25-6.6,25.192-6.6c4.018,0,7.881,0.239,11.593,0.717
						C332.055,72.974,335.633,73.71,339.076,74.705z"/>
				</g>
				<g>
					<path fill="#1D1D1B" d="M81.521,73.787h21.75v51.247c0,11.019-2.267,19.139-6.8,24.361c-4.534,5.222-11.583,7.833-21.147,7.833
						c-2.487,0-4.936-0.182-7.346-0.545c-2.41-0.364-4.744-0.89-7.001-1.578v-17.848c1.148,0.459,2.305,0.804,3.472,1.033
						c1.167,0.229,2.324,0.344,3.472,0.344c4.897,0,8.388-1.425,10.474-4.275c2.084-2.85,3.127-7.776,3.127-14.777V73.787z"/>
					<path fill="#1D1D1B" d="M140.171,73.787h26.226l30.875,81.548H174.03l-5.796-17.273h-31.391l-6.083,17.273h-21.521
						L140.171,73.787z M152.854,91.979l-10.559,30.588h20.774L152.854,91.979z"/>
					<path fill="#1D1D1B" d="M199.796,73.787h21.75v47.459c0,6.964,1.032,11.994,3.099,15.093c2.065,3.099,5.375,4.648,9.928,4.648
						c4.667,0,8.187-1.665,10.56-4.993c2.372-3.328,3.558-8.244,3.558-14.749V73.787h20.718v47.459
						c0,12.014-2.898,21.014-8.694,27.001c-5.797,5.988-14.511,8.981-26.141,8.981c-11.516,0-20.191-3.013-26.025-9.038
						c-5.835-6.026-8.752-15.007-8.752-26.944V73.787z"/>
					<path fill="#1D1D1B" d="M339.076,74.705l-1.607,16.814c-3.328-1.415-6.523-2.477-9.583-3.185
						c-3.062-0.708-6.026-1.062-8.896-1.062c-4.399,0-7.833,0.698-10.301,2.095c-2.468,1.397-3.702,3.319-3.702,5.767
						c0,1.722,0.632,3.224,1.895,4.505c1.263,1.282,3.156,2.344,5.681,3.185c0.842,0.268,2.047,0.651,3.616,1.148
						c9.334,3.022,15.532,5.681,18.593,7.977c2.87,2.219,4.974,4.754,6.313,7.604c1.338,2.851,2.008,6.189,2.008,10.014
						c0,8.991-2.983,15.849-8.952,20.574c-5.968,4.726-14.615,7.087-25.939,7.087c-4.094,0-8.197-0.287-12.31-0.86
						c-4.113-0.574-8.197-1.435-12.252-2.583l1.836-18.191c3.825,1.722,7.547,3.032,11.162,3.931s7.03,1.349,10.244,1.349
						c4.284,0,7.67-0.804,10.157-2.411c2.486-1.607,3.73-3.788,3.73-6.542c0-3.405-3.979-6.485-11.937-9.239
						c-1.914-0.65-3.386-1.167-4.419-1.55c-7.768-2.792-13.314-6.035-16.643-9.727c-3.328-3.691-4.993-8.407-4.993-14.146
						c0-8.187,2.927-14.48,8.781-18.88c5.854-4.399,14.25-6.6,25.192-6.6c4.018,0,7.881,0.239,11.593,0.717
						C332.055,72.974,335.633,73.71,339.076,74.705z"/>
				</g>
				<g>
					<path fill="#1D1D1B" d="M81.521,73.787h21.75v51.247c0,11.019-2.267,19.139-6.8,24.361c-4.534,5.222-11.583,7.833-21.147,7.833
						c-2.487,0-4.936-0.182-7.346-0.545c-2.41-0.364-4.744-0.89-7.001-1.578v-17.848c1.148,0.459,2.305,0.804,3.472,1.033
						c1.167,0.229,2.324,0.344,3.472,0.344c4.897,0,8.388-1.425,10.474-4.275c2.084-2.85,3.127-7.776,3.127-14.777V73.787z"/>
					<path fill="#1D1D1B" d="M140.171,73.787h26.226l30.875,81.548H174.03l-5.796-17.273h-31.391l-6.083,17.273h-21.521
						L140.171,73.787z M152.854,91.979l-10.559,30.588h20.774L152.854,91.979z"/>
					<path fill="#1D1D1B" d="M199.796,73.787h21.75v47.459c0,6.964,1.032,11.994,3.099,15.093c2.065,3.099,5.375,4.648,9.928,4.648
						c4.667,0,8.187-1.665,10.56-4.993c2.372-3.328,3.558-8.244,3.558-14.749V73.787h20.718v47.459
						c0,12.014-2.898,21.014-8.694,27.001c-5.797,5.988-14.511,8.981-26.141,8.981c-11.516,0-20.191-3.013-26.025-9.038
						c-5.835-6.026-8.752-15.007-8.752-26.944V73.787z"/>
					<path fill="#1D1D1B" d="M339.076,74.705l-1.607,16.814c-3.328-1.415-6.523-2.477-9.583-3.185
						c-3.062-0.708-6.026-1.062-8.896-1.062c-4.399,0-7.833,0.698-10.301,2.095c-2.468,1.397-3.702,3.319-3.702,5.767
						c0,1.722,0.632,3.224,1.895,4.505c1.263,1.282,3.156,2.344,5.681,3.185c0.842,0.268,2.047,0.651,3.616,1.148
						c9.334,3.022,15.532,5.681,18.593,7.977c2.87,2.219,4.974,4.754,6.313,7.604c1.338,2.851,2.008,6.189,2.008,10.014
						c0,8.991-2.983,15.849-8.952,20.574c-5.968,4.726-14.615,7.087-25.939,7.087c-4.094,0-8.197-0.287-12.31-0.86
						c-4.113-0.574-8.197-1.435-12.252-2.583l1.836-18.191c3.825,1.722,7.547,3.032,11.162,3.931s7.03,1.349,10.244,1.349
						c4.284,0,7.67-0.804,10.157-2.411c2.486-1.607,3.73-3.788,3.73-6.542c0-3.405-3.979-6.485-11.937-9.239
						c-1.914-0.65-3.386-1.167-4.419-1.55c-7.768-2.792-13.314-6.035-16.643-9.727c-3.328-3.691-4.993-8.407-4.993-14.146
						c0-8.187,2.927-14.48,8.781-18.88c5.854-4.399,14.25-6.6,25.192-6.6c4.018,0,7.881,0.239,11.593,0.717
						C332.055,72.974,335.633,73.71,339.076,74.705z"/>
				</g>
			</g>
		</g>
	</g>
	<g>
	</g>
	<g>
	</g>
	<g>
	</g>
	<g>
	</g>
	<g>
	</g>
	<g>
	</g>
</g>
</svg>
