<?xml version="1.0" encoding="iso-8859-1"?>
<!-- Generator: Adobe Illustrator 18.1.1, SVG Export Plug-In . SVG Version: 6.00 Build 0)  -->
<svg version="1.1" id="Capa_1" xmlns="http://www.w3.org/2000/svg" xmlns:xlink="http://www.w3.org/1999/xlink" x="0px" y="0px"
	 viewBox="0 0 32 32" style="enable-background:new 0 0 32 32;" xml:space="preserve">
<g>
	<path style="fill:#010002;" d="M0,2v24h15.518c1.614,2.411,4.361,3.999,7.482,4c3.12-0.001,5.867-1.589,7.481-4H32V2H0z M14,21
		c0,1.054,0.19,2.06,0.522,2.999H2V5.081l13.563,10.85C14.578,17.375,14,19.119,14,21z M3.851,4h24.298l-12.151,9.719L3.851,4z
		 M23,27.883c-3.801-0.009-6.876-3.084-6.885-6.883c0.009-3.801,3.084-6.876,6.885-6.884c3.799,0.008,6.874,3.083,6.883,6.884
		C29.874,24.799,26.799,27.874,23,27.883z M29.999,15.348C28.35,13.307,25.829,12,23,12c-0.657,0-1.296,0.075-1.913,0.208
		l8.912-7.127V15.348z M26,17l2,2l-6,6l-4-4l2-2l2,2L26,17z"/>
</g>
<g>
</g>
<g>
</g>
<g>
</g>
<g>
</g>
<g>
</g>
<g>
</g>
<g>
</g>
<g>
</g>
<g>
</g>
<g>
</g>
<g>
</g>
<g>
</g>
<g>
</g>
<g>
</g>
<g>
</g>
</svg>
